<svg width="24" height="22" viewBox="0 0 24 22" fill="none" xmlns="http://www.w3.org/2000/svg">
<g clip-path="url(#clip0_4_145)">
<path d="M11.9999 1.33334C8.63327 1.33334 5.93744 2.86667 3.97494 4.69167C2.02494 6.5 0.720768 8.66667 0.104102 10.1542C-0.0333984 10.4833 -0.0333984 10.85 0.104102 11.1792C0.720768 12.6667 2.02494 14.8333 3.97494 16.6417C5.93744 18.4667 8.63327 20 11.9999 20C15.3666 20 18.0624 18.4667 20.0249 16.6417C21.9749 14.8292 23.2791 12.6667 23.8999 11.1792C24.0374 10.85 24.0374 10.4833 23.8999 10.1542C23.2791 8.66667 21.9749 6.5 20.0249 4.69167C18.0624 2.86667 15.3666 1.33334 11.9999 1.33334ZM5.99994 10.6667C5.99994 9.07537 6.63208 7.54925 7.75729 6.42403C8.88251 5.29881 10.4086 4.66667 11.9999 4.66667C13.5912 4.66667 15.1174 5.29881 16.2426 6.42403C17.3678 7.54925 17.9999 9.07537 17.9999 10.6667C17.9999 12.258 17.3678 13.7841 16.2426 14.9093C15.1174 16.0345 13.5912 16.6667 11.9999 16.6667C10.4086 16.6667 8.88251 16.0345 7.75729 14.9093C6.63208 13.7841 5.99994 12.258 5.99994 10.6667ZM11.9999 8C11.9999 9.47084 10.8041 10.6667 9.33327 10.6667C9.03744 10.6667 8.7541 10.6167 8.48744 10.5292C8.25827 10.4542 7.9916 10.5958 7.99994 10.8375C8.01243 11.125 8.0541 11.4125 8.13327 11.7C8.7041 13.8333 10.8999 15.1 13.0333 14.5292C15.1666 13.9583 16.4333 11.7625 15.8624 9.62917C15.3999 7.9 13.8708 6.7375 12.1708 6.66667C11.9291 6.65834 11.7874 6.92084 11.8624 7.15417C11.9499 7.42084 11.9999 7.70417 11.9999 8Z" fill="white"/>
</g>
<defs>
<clipPath id="clip0_4_145">
<rect width="24" height="21.3333" fill="white"/>
</clipPath>
</defs>
</svg>
