<svg width="24" height="24" viewBox="0 0 24 24" fill="none" xmlns="http://www.w3.org/2000/svg">
<g clip-path="url(#clip0_4_241)">
<path d="M11.9536 0C5.35266 0 0 5.35172 0 11.9536C0 17.2351 3.42506 21.7158 8.17462 23.2964C8.772 23.407 8.99137 23.0371 8.99137 22.7213C8.99137 22.4363 8.98022 21.4946 8.97516 20.4958C5.64956 21.2189 4.94784 19.0854 4.94784 19.0854C4.40409 17.7038 3.62062 17.3364 3.62062 17.3364C2.53612 16.5945 3.70237 16.6097 3.70237 16.6097C4.90275 16.6941 5.53481 17.8416 5.53481 17.8416C6.60094 19.669 8.33119 19.1407 9.01331 18.8353C9.12056 18.0626 9.43041 17.5354 9.77222 17.2369C7.11722 16.9345 4.32609 15.9096 4.32609 11.3293C4.32609 10.0243 4.79306 8.95791 5.55778 8.12081C5.43366 7.81969 5.02453 6.60394 5.67356 4.95741C5.67356 4.95741 6.67734 4.63612 8.96166 6.18272C9.91509 5.91778 10.9377 5.78503 11.9536 5.78053C12.9695 5.78503 13.9928 5.91778 14.9482 6.18272C17.2297 4.63612 18.2321 4.95741 18.2321 4.95741C18.8827 6.60394 18.4734 7.81969 18.3493 8.12081C19.1157 8.95791 19.5795 10.0242 19.5795 11.3293C19.5795 15.9204 16.7831 16.9314 14.1214 17.2273C14.5501 17.5983 14.9321 18.3258 14.9321 19.4409C14.9321 21.0403 14.9182 22.3276 14.9182 22.7213C14.9182 23.0394 15.1334 23.4122 15.7394 23.2948C20.4863 21.7124 23.9071 17.2333 23.9071 11.9536C23.9071 5.35172 18.5552 0 11.9536 0Z" fill="white"/>
<path d="M4.47714 17.0282C4.45089 17.0875 4.35733 17.1053 4.2723 17.0647C4.18558 17.0257 4.13683 16.9447 4.16496 16.885C4.19074 16.8239 4.2843 16.8068 4.37083 16.8479C4.45774 16.8868 4.50724 16.9686 4.47714 17.0282ZM5.06514 17.5528C5.00814 17.6057 4.89667 17.5811 4.82102 17.4976C4.74283 17.4142 4.72821 17.3029 4.78605 17.2492C4.84483 17.1964 4.95292 17.221 5.0313 17.3045C5.10949 17.3887 5.12467 17.4995 5.06505 17.5529M5.46855 18.2241C5.39524 18.275 5.27542 18.2272 5.20146 18.1209C5.12824 18.0147 5.12824 17.8872 5.20305 17.8361C5.2773 17.785 5.39524 17.831 5.47024 17.9364C5.54336 18.0445 5.54336 18.172 5.46846 18.2242M6.15068 19.0015C6.08514 19.0737 5.94564 19.0544 5.84346 18.9558C5.73902 18.8594 5.70986 18.7226 5.77558 18.6503C5.84186 18.578 5.98221 18.5983 6.08514 18.6961C6.18892 18.7923 6.22052 18.9301 6.15068 19.0015ZM7.0323 19.264C7.00352 19.3576 6.86908 19.4002 6.73371 19.3604C6.59852 19.3194 6.51002 19.2097 6.5373 19.1152C6.56543 19.0209 6.70043 18.9766 6.83683 19.0192C6.97183 19.0599 7.06043 19.1688 7.0323 19.264ZM8.0358 19.3753C8.03917 19.4739 7.92433 19.5557 7.78221 19.5575C7.63924 19.5606 7.52364 19.4808 7.52214 19.3838C7.52214 19.2843 7.63436 19.2033 7.77724 19.2009C7.91936 19.1981 8.0358 19.2773 8.0358 19.3753ZM9.02149 19.3375C9.03855 19.4337 8.93974 19.5325 8.79864 19.5588C8.65989 19.5841 8.53146 19.5247 8.51374 19.4294C8.49649 19.3308 8.59718 19.2321 8.73564 19.2065C8.87702 19.1819 9.00349 19.2397 9.02149 19.3375Z" fill="white"/>
</g>
<defs>
<clipPath id="clip0_4_241">
<rect width="24" height="23.3472" fill="white"/>
</clipPath>
</defs>
</svg>
