<svg width="24" height="28" viewBox="0 0 24 28" fill="none" xmlns="http://www.w3.org/2000/svg">
<path d="M0 1.71428V25.7143H24V1.71428H0ZM13.0607 20.4321C13.0607 22.7679 11.6893 23.8339 9.69107 23.8339C7.88571 23.8339 6.84107 22.9018 6.30536 21.7714L8.14286 20.6625C8.49643 21.2893 8.81786 21.8196 9.59464 21.8196C10.3339 21.8196 10.8054 21.5303 10.8054 20.4V12.7339H13.0607V20.4321ZM18.3964 23.8339C16.3018 23.8339 14.9464 22.8375 14.2875 21.5303L16.125 20.4696C16.6071 21.2571 17.2393 21.8411 18.3482 21.8411C19.2804 21.8411 19.8804 21.375 19.8804 20.7268C19.8804 19.9554 19.2696 19.6821 18.2357 19.2268L17.6732 18.9857C16.0446 18.2946 14.9679 17.4214 14.9679 15.5839C14.9679 13.8911 16.2589 12.6054 18.2679 12.6054C19.7036 12.6054 20.7321 13.1036 21.4714 14.4107L19.7143 15.5357C19.3286 14.8446 18.9107 14.5714 18.2625 14.5714C17.6036 14.5714 17.1857 14.9893 17.1857 15.5357C17.1857 16.2107 17.6036 16.4839 18.5732 16.9071L19.1357 17.1482C21.0536 17.9679 22.1304 18.8089 22.1304 20.6946C22.1304 22.7196 20.5339 23.8339 18.3964 23.8339Z" fill="white"/>
</svg>
