<svg width="24" height="23" viewBox="0 0 24 23" fill="none" xmlns="http://www.w3.org/2000/svg">
<g clip-path="url(#clip0_4_238)">
<path d="M0 2.66411C0 1.89189 0.270278 1.25483 0.810811 0.752911C1.35134 0.250973 2.05406 1.52588e-05 2.91892 1.52588e-05C3.76835 1.52588e-05 4.45559 0.247104 4.98069 0.741328C5.52123 1.25098 5.79151 1.91506 5.79151 2.73361C5.79151 3.47492 5.52897 4.09266 5.00386 4.58689C4.46333 5.09654 3.7529 5.35137 2.87259 5.35137H2.84942C1.99999 5.35137 1.31275 5.09654 0.787645 4.58689C0.262541 4.07724 0 3.4363 0 2.66411ZM0.301158 22.9344V7.45947H5.44402V22.9344H0.301158ZM8.29344 22.9344H13.4363V14.2935C13.4363 13.7529 13.4981 13.3359 13.6216 13.0425C13.8378 12.5174 14.166 12.0734 14.6062 11.7104C15.0463 11.3475 15.5984 11.166 16.2625 11.166C17.9923 11.166 18.8571 12.3321 18.8571 14.6641V22.9344H24V14.0618C24 11.7761 23.4595 10.0425 22.3784 8.86102C21.2973 7.67955 19.8687 7.08882 18.0927 7.08882C16.1004 7.08882 14.5483 7.94596 13.4363 9.66025V9.70658H13.4131L13.4363 9.66025V7.45947H8.29344C8.32432 7.95368 8.33977 9.49035 8.33977 12.0695C8.33977 14.6487 8.32432 18.2703 8.29344 22.9344Z" fill="white"/>
</g>
<defs>
<clipPath id="clip0_4_238">
<rect width="24" height="22.9344" fill="white"/>
</clipPath>
</defs>
</svg>
