<svg width="24" height="24" viewBox="0 0 24 24" fill="none" xmlns="http://www.w3.org/2000/svg">
<g clip-path="url(#clip0_4_161)">
<path d="M7.5 1.5C7.5 0.670312 8.17031 0 9 0H10.5C11.3297 0 12 0.670312 12 1.5C12.8297 1.5 13.5 2.17031 13.5 3V13.5C13.5 14.3297 12.8297 15 12 15C12 15.8297 11.3297 16.5 10.5 16.5H9C8.17031 16.5 7.5 15.8297 7.5 15C6.67031 15 6 14.3297 6 13.5V3C6 2.17031 6.67031 1.5 7.5 1.5ZM1.5 21H15C18.3141 21 21 18.3141 21 15C21 11.6859 18.3141 9 15 9V6C19.9688 6 24 10.0312 24 15C24 17.3062 23.1328 19.4062 21.7078 21H22.5C23.3297 21 24 21.6703 24 22.5C24 23.3297 23.3297 24 22.5 24H15H1.5C0.670312 24 0 23.3297 0 22.5C0 21.6703 0.670312 21 1.5 21ZM5.25 18H14.25C14.6625 18 15 18.3375 15 18.75C15 19.1625 14.6625 19.5 14.25 19.5H5.25C4.8375 19.5 4.5 19.1625 4.5 18.75C4.5 18.3375 4.8375 18 5.25 18Z" fill="white"/>
</g>
<defs>
<clipPath id="clip0_4_161">
<rect width="24" height="24" fill="white"/>
</clipPath>
</defs>
</svg>
