<svg width="24" height="17" viewBox="0 0 24 17" fill="none" xmlns="http://www.w3.org/2000/svg">
<path d="M2.7 2.3C2.7 1.74304 2.92125 1.2089 3.31508 0.815073C3.7089 0.421246 4.24305 0.199997 4.8 0.199997C5.35696 0.199997 5.8911 0.421246 6.28492 0.815073C6.67875 1.2089 6.9 1.74304 6.9 2.3C6.9 2.85695 6.67875 3.39109 6.28492 3.78492C5.8911 4.17875 5.35696 4.4 4.8 4.4C4.24305 4.4 3.7089 4.17875 3.31508 3.78492C2.92125 3.39109 2.7 2.85695 2.7 2.3ZM2.4 8.21375C2.025 8.63375 1.8 9.1925 1.8 9.8C1.8 10.4075 2.025 10.9662 2.4 11.3862V8.21375ZM7.815 6.365C6.70125 7.35125 6 8.795 6 10.4C6 11.6862 6.45 12.8675 7.2 13.7937V14.6C7.2 15.2637 6.66375 15.8 6 15.8H3.6C2.93625 15.8 2.4 15.2637 2.4 14.6V13.595C0.9825 12.92 0 11.4762 0 9.8C0 7.47875 1.87875 5.6 4.2 5.6H5.4C6.3 5.6 7.1325 5.88125 7.815 6.36125V6.365ZM16.8 14.6V13.7937C17.55 12.8675 18 11.6862 18 10.4C18 8.795 17.2988 7.35125 16.185 6.36125C16.8675 5.88125 17.7 5.6 18.6 5.6H19.8C22.1213 5.6 24 7.47875 24 9.8C24 11.4762 23.0175 12.92 21.6 13.595V14.6C21.6 15.2637 21.0638 15.8 20.4 15.8H18C17.3363 15.8 16.8 15.2637 16.8 14.6ZM17.1 2.3C17.1 1.74304 17.3212 1.2089 17.7151 0.815073C18.1089 0.421246 18.643 0.199997 19.2 0.199997C19.757 0.199997 20.2911 0.421246 20.6849 0.815073C21.0788 1.2089 21.3 1.74304 21.3 2.3C21.3 2.85695 21.0788 3.39109 20.6849 3.78492C20.2911 4.17875 19.757 4.4 19.2 4.4C18.643 4.4 18.1089 4.17875 17.7151 3.78492C17.3212 3.39109 17.1 2.85695 17.1 2.3ZM21.6 8.21375V11.39C21.975 10.9662 22.2 10.4112 22.2 9.80375C22.2 9.19625 21.975 8.6375 21.6 8.2175V8.21375ZM12 0.199997C12.6365 0.199997 13.247 0.452853 13.6971 0.902941C14.1471 1.35303 14.4 1.96348 14.4 2.6C14.4 3.23652 14.1471 3.84697 13.6971 4.29705C13.247 4.74714 12.6365 5 12 5C11.3635 5 10.753 4.74714 10.3029 4.29705C9.85286 3.84697 9.6 3.23652 9.6 2.6C9.6 1.96348 9.85286 1.35303 10.3029 0.902941C10.753 0.452853 11.3635 0.199997 12 0.199997ZM9 10.4C9 11.0075 9.225 11.5625 9.6 11.9862V8.81375C9.225 9.2375 9 9.7925 9 10.4ZM14.4 8.81375V11.99C14.775 11.5662 15 11.0112 15 10.4037C15 9.79625 14.775 9.2375 14.4 8.8175V8.81375ZM16.8 10.4C16.8 12.0762 15.8175 13.52 14.4 14.195V15.8C14.4 16.4637 13.8638 17 13.2 17H10.8C10.1363 17 9.6 16.4637 9.6 15.8V14.195C8.1825 13.52 7.2 12.0762 7.2 10.4C7.2 8.07875 9.07875 6.2 11.4 6.2H12.6C14.9213 6.2 16.8 8.07875 16.8 10.4Z" fill="white"/>
</svg>
