<svg width="24" height="23" viewBox="0 0 24 23" fill="none" xmlns="http://www.w3.org/2000/svg">
<path d="M24 11.6761C24 10.0862 22.009 8.57949 18.9564 7.64512C19.6608 4.53383 19.3477 2.05849 17.9682 1.26599C17.6502 1.0801 17.2784 0.992044 16.8724 0.992044V2.08295C17.0974 2.08295 17.2784 2.12698 17.4301 2.21014C18.0954 2.59172 18.384 4.04463 18.159 5.91336C18.1052 6.37321 18.0171 6.85751 17.9095 7.3516C16.9507 7.11679 15.9038 6.93579 14.8031 6.81838C14.1427 5.91336 13.4578 5.09151 12.768 4.37239C14.3628 2.89013 15.8598 2.07806 16.8773 2.07806V0.987152C15.532 0.987152 13.7709 1.94598 11.9902 3.60925C10.2095 1.95576 8.44843 1.00672 7.10314 1.00672V2.09763C8.11578 2.09763 9.61761 2.9048 11.2124 4.37729C10.5275 5.09641 9.84264 5.91336 9.19201 6.81838C8.08643 6.93579 7.03954 7.11679 6.08072 7.3565C5.9682 6.8673 5.88504 6.39278 5.82633 5.93782C5.59641 4.06909 5.88015 2.61618 6.54056 2.22971C6.68732 2.14166 6.87811 2.10252 7.10314 2.10252V1.01161C6.69221 1.01161 6.32042 1.09967 5.99755 1.28556C4.62291 2.07806 4.31472 4.54851 5.02405 7.65001C1.98125 8.58927 0 10.0911 0 11.6761C0 13.266 1.99103 14.7727 5.04362 15.7071C4.33918 18.8184 4.65226 21.2937 6.0318 22.0862C6.34978 22.2721 6.72157 22.3602 7.13249 22.3602C8.47778 22.3602 10.2389 21.4013 12.0196 19.7381C13.8002 21.3916 15.5614 22.3406 16.9066 22.3406C17.3176 22.3406 17.6894 22.2525 18.0122 22.0666C19.3869 21.2741 19.6951 18.8037 18.9857 15.7022C22.0188 14.7678 24 13.2611 24 11.6761ZM17.6307 8.41316C17.4497 9.04422 17.2246 9.69486 16.9702 10.3455C16.7697 9.95413 16.5593 9.56277 16.3294 9.17142C16.1044 8.78006 15.8647 8.39848 15.625 8.0267C16.3196 8.12943 16.9898 8.25662 17.6307 8.41316ZM15.3901 13.6231C15.0086 14.2835 14.6172 14.9097 14.2112 15.4918C13.4823 15.5554 12.7436 15.5897 12 15.5897C11.2613 15.5897 10.5226 15.5554 9.79861 15.4967C9.39258 14.9146 8.99633 14.2933 8.61476 13.6378C8.24297 12.9969 7.90542 12.3463 7.59723 11.6908C7.90053 11.0353 8.24297 10.3797 8.60987 9.73888C8.99144 9.07847 9.3828 8.4523 9.78883 7.87015C10.5177 7.80656 11.2564 7.77231 12 7.77231C12.7387 7.77231 13.4774 7.80656 14.2014 7.86526C14.6074 8.4474 15.0037 9.06868 15.3852 9.72421C15.757 10.3651 16.0946 11.0157 16.4028 11.6712C16.0946 12.3267 15.757 12.9823 15.3901 13.6231ZM16.9702 12.9872C17.2344 13.6427 17.4594 14.2982 17.6453 14.9342C17.0045 15.0907 16.3294 15.2228 15.6298 15.3255C15.8695 14.9488 16.1093 14.5624 16.3343 14.1661C16.5593 13.7748 16.7697 13.3785 16.9702 12.9872ZM12.0098 18.2069C11.5548 17.7373 11.0999 17.2138 10.6498 16.6415C11.0901 16.661 11.5402 16.6757 11.9951 16.6757C12.455 16.6757 12.9099 16.6659 13.3551 16.6415C12.9148 17.2138 12.4598 17.7373 12.0098 18.2069ZM8.37016 15.3255C7.6755 15.2228 7.0053 15.0956 6.36445 14.939C6.54545 14.308 6.77048 13.6574 7.02487 13.0067C7.22544 13.3981 7.43579 13.7894 7.66572 14.1808C7.89564 14.5722 8.13045 14.9537 8.37016 15.3255ZM11.9853 5.14533C12.4403 5.61495 12.8952 6.1384 13.3453 6.71076C12.905 6.69119 12.455 6.67651 12 6.67651C11.5402 6.67651 11.0852 6.6863 10.64 6.71076C11.0803 6.1384 11.5353 5.61495 11.9853 5.14533ZM8.36527 8.0267C8.12556 8.40338 7.88585 8.78984 7.66082 9.18609C7.43579 9.57745 7.22544 9.96881 7.02487 10.3602C6.7607 9.70464 6.53567 9.04912 6.34978 8.41316C6.99062 8.26151 7.66572 8.12943 8.36527 8.0267ZM3.93804 14.1514C2.20628 13.4128 1.08602 12.4441 1.08602 11.6761C1.08602 10.9081 2.20628 9.93456 3.93804 9.20077C4.35875 9.01976 4.81859 8.85833 5.29311 8.70668C5.57195 9.66551 5.93885 10.6635 6.3938 11.6859C5.94374 12.7034 5.58174 13.6965 5.30779 14.6504C4.82348 14.4988 4.36364 14.3324 3.93804 14.1514ZM6.56991 21.1421C5.90461 20.7605 5.61598 19.3076 5.84101 17.4388C5.89482 16.979 5.98288 16.4947 6.0905 16.0006C7.04933 16.2354 8.09621 16.4164 9.1969 16.5338C9.85732 17.4388 10.5422 18.2607 11.232 18.9798C9.63718 20.4621 8.14024 21.2741 7.12271 21.2741C6.90257 21.2693 6.71667 21.2252 6.56991 21.1421ZM18.1737 17.4144C18.4036 19.2831 18.1199 20.736 17.4594 21.1225C17.3127 21.2106 17.1219 21.2497 16.8969 21.2497C15.8842 21.2497 14.3824 20.4425 12.7876 18.97C13.4725 18.2509 14.1574 17.434 14.808 16.5289C15.9136 16.4115 16.9605 16.2305 17.9193 15.9908C18.0318 16.4849 18.1199 16.9594 18.1737 17.4144ZM20.0571 14.1514C19.6364 14.3324 19.1765 14.4939 18.702 14.6455C18.4232 13.6867 18.0563 12.6887 17.6013 11.6663C18.0514 10.6488 18.4134 9.65572 18.6873 8.70179C19.1716 8.85344 19.6315 9.01976 20.062 9.20077C21.7937 9.93946 22.914 10.9081 22.914 11.6761C22.9091 12.4441 21.7888 13.4176 20.0571 14.1514Z" fill="white"/>
<path d="M11.9952 13.9117C13.2299 13.9117 14.2308 12.9108 14.2308 11.6761C14.2308 10.4414 13.2299 9.44048 11.9952 9.44048C10.7604 9.44048 9.75952 10.4414 9.75952 11.6761C9.75952 12.9108 10.7604 13.9117 11.9952 13.9117Z" fill="white"/>
</svg>
