<svg width="24" height="15" viewBox="0 0 24 15" fill="none" xmlns="http://www.w3.org/2000/svg">
<g clip-path="url(#clip0_4_116)">
<path d="M11.9999 0C8.80105 0 6.8019 1.59897 6.00211 4.7966C7.20179 3.19763 8.60126 2.59825 10.2005 2.99784C11.1131 3.22583 11.7653 3.88792 12.4874 4.6205C13.6634 5.81388 15.0244 7.19505 17.9977 7.19505C21.1962 7.19505 23.1957 5.59608 23.9951 2.39815C22.7958 3.99712 21.3963 4.5968 19.7967 4.19721C18.8844 3.96922 18.2323 3.30713 17.5102 2.57455C16.3342 1.38117 14.9728 0 11.9999 0ZM6.00211 7.19505C2.80358 7.19505 0.804122 8.79402 0.00463867 11.9919C1.20401 10.393 2.60348 9.7933 4.20305 10.1932C5.11533 10.4215 5.76752 11.0833 6.4896 11.8156C7.66558 13.0089 9.02695 14.3904 11.9999 14.3904C15.1987 14.3904 17.1979 12.7914 17.9977 9.5935C16.798 11.1925 15.3985 11.7922 13.7993 11.3923C12.8867 11.1646 12.2345 10.5022 11.5124 9.7699C10.3364 8.57652 8.97535 7.19505 6.00211 7.19505Z" fill="white"/>
</g>
<defs>
<clipPath id="clip0_4_116">
<rect width="24" height="14.3904" fill="white"/>
</clipPath>
</defs>
</svg>
