<svg width="24" height="17" viewBox="0 0 24 17" fill="none" xmlns="http://www.w3.org/2000/svg">
<g clip-path="url(#clip0_4_246)">
<path d="M9.16996 16.1664C15.8867 16.1664 19.5598 10.5998 19.5598 5.77266C19.5598 5.61457 19.5566 5.4572 19.5495 5.30049C20.2642 4.78315 20.881 4.14259 21.371 3.40886C20.7167 3.69985 20.0126 3.89571 19.274 3.98402C20.0279 3.53178 20.6067 2.81633 20.8798 1.96352C20.163 2.38891 19.3788 2.68879 18.561 2.85023C17.8946 2.14017 16.946 1.69608 15.8955 1.69608C13.8789 1.69608 12.2436 3.33202 12.2436 5.34857C12.2436 5.63526 12.2757 5.91403 12.3383 6.18152C9.30337 6.02874 6.61218 4.57513 4.8111 2.36482C4.4867 2.9223 4.31608 3.55589 4.31665 4.20089C4.31665 5.46827 4.9613 6.58708 5.94166 7.24165C5.36177 7.22393 4.7946 7.06724 4.28785 6.78475C4.28731 6.80009 4.28731 6.81503 4.28731 6.83141C4.28731 8.60052 5.54601 10.0776 7.2169 10.4123C6.90308 10.4978 6.57926 10.541 6.25401 10.5408C6.01912 10.5408 5.7902 10.5177 5.56771 10.475C6.03261 11.9265 7.38067 12.9827 8.97895 13.0122C7.72911 13.9922 6.1547 14.5759 4.44355 14.5759C4.15246 14.5761 3.86161 14.5592 3.57251 14.5253C5.18863 15.5615 7.10761 16.1662 9.17014 16.1662" fill="white"/>
</g>
<defs>
<clipPath id="clip0_4_246">
<rect width="24" height="16.1664" fill="white"/>
</clipPath>
</defs>
</svg>
